<svg xmlns="http://www.w3.org/2000/svg" viewBox="0 0.01103122066706419 98.10291290283203 98.0889663696289"><title>资源 38</title><path d="M38.79 20.19c0-3.32-.11-6.65 0-10C39 6 40.73 2.67 44.77 1a10.16 10.16 0 0 1 11.17 1.62 10.2 10.2 0 0 1 3.43 8c.1 6.22.12 12.44 0 18.66S54.8 39.9 49.1 39.84c-6.1-.07-10.28-4.39-10.32-10.69v-9zM38.77 78.06v-9.2c.06-6.11 4.16-10.53 9.81-10.62 6.14-.09 10.61 4 10.77 10.22.16 6.45.16 12.92 0 19.37A10.39 10.39 0 0 1 49 98.1c-5.74-.06-10.1-4.55-10.23-10.6-.06-3.15 0-6.3 0-9.44zM19.9 38.83c3.32 0 6.64-.08 10 0 6 .19 10.07 4.37 10 10.08a10 10 0 0 1-10.41 10.34H10.58C4.46 59.23 0 54.93 0 49.09s4.07-10 10.2-10.25c3.23-.11 6.47 0 9.7 0zM78 38.83c3.32 0 6.63-.09 10 0 6 .2 10.23 4.55 10.1 10.33a10.08 10.08 0 0 1-10.44 10.09h-18.9c-6.3 0-10.56-4.25-10.58-10.13S62.34 39 68.58 38.87c3.15-.08 6.3 0 9.45 0z" fill="#209cde"></path><path d="M20 67.68c4.65-.3 10.5 4.61 10.42 10.18a10.54 10.54 0 0 1-10.35 10.56A10.37 10.37 0 1 1 20 67.68zM30.32 19.86a10.29 10.29 0 0 1-10.1 10.46 10.39 10.39 0 1 1-.15-20.78c5.51-.07 10.38 5.14 10.25 10.32zM88.38 77.89A10.29 10.29 0 1 1 67.8 78c-.07-5.81 4.29-10 10.2-10.26 6.14-.27 10.4 5.66 10.38 10.15zM88.49 19.89A10.34 10.34 0 1 1 78 9.63c4.64-.02 10.9 4.37 10.49 10.26z" fill="#3cb54b"></path></svg>